<svg xmlns="http://www.w3.org/2000/svg">
  <symbol id="icon-python" viewBox="0 0 64 64">
    <path d="M31 7c-8 0-12 3-12 9v5h17c5 0 8 3 8 8v3H17c-6 0-10 4-10 11s4 11 10 11h7v-7c0-6 4-10 10-10h13c7 0 10-4 10-11V16c0-6-4-9-12-9H31Z" fill="#3776AB" stroke="#242423" stroke-width="2.2" stroke-linejoin="round"/>
    <path d="M33 57c8 0 12-3 12-9v-5H28c-5 0-8-3-8-8v-3h27c6 0 10-4 10-11S53 10 47 10h-7v7c0 6-4 10-10 10H17c-7 0-10 4-10 11v10c0 6 4 9 12 9h14Z" fill="#FFD43B" stroke="#242423" stroke-width="2.2" stroke-linejoin="round"/>
    <circle cx="28" cy="15" r="2.1" fill="#FAF6EE"/>
    <circle cx="36" cy="49" r="2.1" fill="#242423"/>
  </symbol>

  <symbol id="icon-javascript" viewBox="0 0 64 64">
    <rect x="9" y="9" width="46" height="46" rx="4" fill="#F7DF1E" stroke="#242423" stroke-width="2.4"/>
    <text x="33" y="43" text-anchor="middle" font-family="Inter, Arial, sans-serif" font-size="25" font-weight="900" fill="#242423">JS</text>
  </symbol>

  <symbol id="icon-typescript" viewBox="0 0 64 64">
    <rect x="9" y="9" width="46" height="46" rx="4" fill="#3178C6" stroke="#242423" stroke-width="2.4"/>
    <text x="33" y="42" text-anchor="middle" font-family="Inter, Arial, sans-serif" font-size="23" font-weight="900" fill="#FAF6EE">TS</text>
  </symbol>

  <symbol id="icon-java" viewBox="0 0 64 64">
    <path d="M33 8c9 6-11 10 1 17M39 12c8 7-12 8-1 17" fill="none" stroke="#E76F51" stroke-width="3" stroke-linecap="round"/>
    <path d="M18 34c10 4 23 4 31 0M16 42c11 5 26 5 35 0M21 49c8 3 19 3 26 0" fill="none" stroke="#3776AB" stroke-width="3" stroke-linecap="round"/>
    <path d="M20 31c3 16 21 16 25 0" fill="none" stroke="#242423" stroke-width="2.2" stroke-linecap="round"/>
  </symbol>

  <symbol id="icon-cpp" viewBox="0 0 64 64">
    <path d="M32 6 55 19v26L32 58 9 45V19L32 6Z" fill="#00599C" stroke="#242423" stroke-width="2.4" stroke-linejoin="round"/>
    <text x="31" y="41" text-anchor="middle" font-family="Inter, Arial, sans-serif" font-size="22" font-weight="900" fill="#FAF6EE">C++</text>
  </symbol>

  <symbol id="icon-react" viewBox="0 0 64 64">
    <ellipse cx="32" cy="32" rx="25" ry="9" fill="none" stroke="#61DAFB" stroke-width="3"/>
    <ellipse cx="32" cy="32" rx="25" ry="9" fill="none" stroke="#61DAFB" stroke-width="3" transform="rotate(60 32 32)"/>
    <ellipse cx="32" cy="32" rx="25" ry="9" fill="none" stroke="#61DAFB" stroke-width="3" transform="rotate(120 32 32)"/>
    <circle cx="32" cy="32" r="5" fill="#61DAFB" stroke="#242423" stroke-width="1.6"/>
  </symbol>

  <symbol id="icon-vue" viewBox="0 0 64 64">
    <path d="M7 12h14l11 19 11-19h14L32 55 7 12Z" fill="#41B883" stroke="#242423" stroke-width="2.2" stroke-linejoin="round"/>
    <path d="M21 12h10l1 2 1-2h10L32 31 21 12Z" fill="#34495E"/>
  </symbol>

  <symbol id="icon-node" viewBox="0 0 64 64">
    <path d="M32 7 53 19v25L32 57 11 44V19L32 7Z" fill="#5FA04E" stroke="#242423" stroke-width="2.2" stroke-linejoin="round"/>
    <text x="32" y="40" text-anchor="middle" font-family="Inter, Arial, sans-serif" font-size="22" font-weight="900" fill="#FAF6EE">N</text>
  </symbol>

  <symbol id="icon-django" viewBox="0 0 64 64">
    <text x="4" y="39" font-family="Inter, Arial, sans-serif" font-size="20" font-weight="900" fill="#092E20">django</text>
    <path d="M4 46c13 3 35 3 56 0" fill="none" stroke="#242423" stroke-width="2" stroke-linecap="round" stroke-dasharray="2 5"/>
  </symbol>

  <symbol id="icon-fastapi" viewBox="0 0 64 64">
    <circle cx="32" cy="32" r="25" fill="#009688" stroke="#242423" stroke-width="2.2"/>
    <path d="M35 12 20 34h11l-3 18 17-25H34l1-15Z" fill="#FAF6EE" stroke="#242423" stroke-width="1.5" stroke-linejoin="round"/>
  </symbol>

  <symbol id="icon-postgresql" viewBox="0 0 64 64">
    <path d="M14 18c7-9 24-10 34-2 8 6 8 22 0 29-6 6-17 6-24 2l-8 6 3-11c-7-5-10-17-5-24Z" fill="#336791" stroke="#242423" stroke-width="2.2" stroke-linejoin="round"/>
    <path d="M25 22c-4 8-2 15 5 19M42 23c3 8 1 14-5 18M23 31h19" fill="none" stroke="#FAF6EE" stroke-width="2.4" stroke-linecap="round"/>
    <circle cx="25" cy="23" r="2" fill="#FAF6EE"/>
    <circle cx="41" cy="23" r="2" fill="#FAF6EE"/>
  </symbol>

  <symbol id="icon-mongodb" viewBox="0 0 64 64">
    <path d="M33 5c14 14 15 27 1 50-14-19-14-35-1-50Z" fill="#47A248" stroke="#242423" stroke-width="2.2" stroke-linejoin="round"/>
    <path d="M33 12c0 12 0 26 1 43" stroke="#FAF6EE" stroke-width="2.2" stroke-linecap="round"/>
  </symbol>

  <symbol id="icon-gcp" viewBox="0 0 64 64">
    <path d="M21 45h25c8 0 13-6 13-13 0-8-6-13-14-13-4-8-13-12-22-8-6 3-10 9-11 16-5 1-8 5-8 10 0 6 6 8 17 8Z" fill="#FAF6EE" stroke="#242423" stroke-width="2.2" stroke-linejoin="round"/>
    <path d="M20 45 33 20" stroke="#34A853" stroke-width="5.4" stroke-linecap="round"/>
    <path d="M33 20h15" stroke="#EA4335" stroke-width="5.4" stroke-linecap="round"/>
    <path d="M48 20c6 4 8 13 4 18" stroke="#FBBC05" stroke-width="5.4" stroke-linecap="round"/>
    <path d="M52 39c-3 4-7 6-12 6H20" stroke="#4285F4" stroke-width="5.4" stroke-linecap="round"/>
  </symbol>

  <symbol id="icon-firebase" viewBox="0 0 64 64">
    <path d="M12 52 22 9l12 21 7-14 11 36H12Z" fill="#FFCA28" stroke="#242423" stroke-width="2.2" stroke-linejoin="round"/>
    <path d="M22 9 34 30 12 52l10-43Z" fill="#FFA000"/>
    <path d="m41 16 11 36-18-22 7-14Z" fill="#F57C00"/>
  </symbol>

  <symbol id="icon-docker" viewBox="0 0 72 64">
    <path d="M11 35h43c5 0 8-2 10-6 1 5-1 12-6 17-5 4-12 7-23 7H21c-8 0-13-5-13-12 0-3 1-5 3-6Z" fill="#2496ED" stroke="#242423" stroke-width="2.2" stroke-linejoin="round"/>
    <path d="M18 20h8v8h-8zM28 20h8v8h-8zM38 20h8v8h-8zM28 10h8v8h-8zM38 10h8v8h-8z" fill="#8ED1FC" stroke="#242423" stroke-width="1.6"/>
    <path d="M56 30c3 0 6-2 8-5" fill="none" stroke="#242423" stroke-width="2.2" stroke-linecap="round"/>
  </symbol>

  <symbol id="icon-kubernetes" viewBox="0 0 64 64">
    <path d="M32 6 54 19v26L32 58 10 45V19L32 6Z" fill="#326CE5" stroke="#242423" stroke-width="2.2" stroke-linejoin="round"/>
    <circle cx="32" cy="32" r="11" fill="#FAF6EE" stroke="#242423" stroke-width="1.8"/>
    <path d="M32 16v32M16 32h32M21 21l22 22M43 21 21 43" stroke="#326CE5" stroke-width="2" stroke-linecap="round"/>
  </symbol>

  <symbol id="icon-jenkins" viewBox="0 0 64 64">
    <circle cx="32" cy="21" r="13" fill="#F4D6B8" stroke="#242423" stroke-width="2.2"/>
    <path d="M18 56c2-13 7-21 14-21s12 8 14 21H18Z" fill="#FAF6EE" stroke="#242423" stroke-width="2.2" stroke-linejoin="round"/>
    <path d="M22 18c4-9 16-9 20 0" fill="none" stroke="#242423" stroke-width="3" stroke-linecap="round"/>
    <path d="m28 39 4 5 4-5" fill="#D33833" stroke="#242423" stroke-width="1.8" stroke-linejoin="round"/>
  </symbol>

  <symbol id="icon-git" viewBox="0 0 64 64">
    <rect x="12" y="12" width="40" height="40" rx="4" transform="rotate(45 32 32)" fill="#F05032" stroke="#242423" stroke-width="2.2"/>
    <path d="M24 24 40 40M29 29v11" stroke="#FAF6EE" stroke-width="4" stroke-linecap="round"/>
    <circle cx="24" cy="24" r="4" fill="#FAF6EE" stroke="#242423" stroke-width="1.5"/>
    <circle cx="40" cy="40" r="4" fill="#FAF6EE" stroke="#242423" stroke-width="1.5"/>
    <circle cx="29" cy="40" r="4" fill="#FAF6EE" stroke="#242423" stroke-width="1.5"/>
  </symbol>

  <symbol id="icon-github" viewBox="0 0 64 64">
    <path d="M32 6.8C17.8 6.8 6.4 18.2 6.4 32.4c0 11.4 7.4 21 17.6 24.4 1.2.2 1.8-.6 1.8-1.2v-4.8c-7.2 1.6-8.6-3-8.6-3-1.2-3-2.8-3.8-2.8-3.8-2.4-1.6.2-1.6.2-1.6 2.6.2 4 2.6 4 2.6 2.2 3.8 6 2.8 7.4 2.2.2-1.6.8-2.8 1.6-3.4-5.6-.6-11.6-2.8-11.6-12.6 0-2.8 1-5 2.6-6.8-.2-.6-1.2-3.2.2-6.6 0 0 2.2-.6 7 2.6 2-.6 4.2-.8 6.4-.8s4.4.2 6.4.8c4.8-3.2 7-2.6 7-2.6 1.4 3.4.6 6 .2 6.6 1.6 1.8 2.6 4 2.6 6.8 0 9.8-6 12-11.6 12.6 1 .8 1.8 2.4 1.8 4.8v7c0 .6.4 1.4 1.8 1.2C50.6 53.4 58 43.8 58 32.4 58 18.2 46.2 6.8 32 6.8Z" fill="#242423"/>
    <path d="M25.8 50.8c-3.2.8-5.8.2-8-1.6" fill="none" stroke="#FAF6EE" stroke-width="2.2" stroke-linecap="round" opacity="0.48"/>
  </symbol>
</svg>
