<svg xmlns="http://www.w3.org/2000/svg" viewBox="0 0 64 64" fill="none">
  <path d="M20 11c8 5 9 12 5 18 3 5 7 9 12 12 6-4 13-3 18 5-2 6-7 10-13 10C26 55 9 38 8 22c0-6 4-11 12-11Z" fill="#A9C786"/>
  <path d="M20 11c8 5 9 12 5 18 3 5 7 9 12 12 6-4 13-3 18 5-2 6-7 10-13 10C26 55 9 38 8 22c0-6 4-11 12-11Z" stroke="#242423" stroke-width="3.1" stroke-linejoin="round"/>
  <path d="M18 16c3 4 4 7 2 11M39 46c4-2 8-1 11 2" stroke="#F8F2E7" stroke-width="2.5" stroke-linecap="round"/>
  <path d="M10 30c2 8 9 17 18 22" stroke="#1BAB72" stroke-width="2.4" stroke-linecap="round" opacity=".8"/>
</svg>
