<svg xmlns="http://www.w3.org/2000/svg" viewBox="0 0 340 230" fill="none">
  <path d="M52 184c56 16 178 17 236-2" stroke="#242423" stroke-width="2.4" stroke-linecap="round" opacity=".22"/>
  <path d="M83 146c41-5 130-6 189 2 8 1 10 8 4 14-7 7-12 17-7 27-52-6-132-5-195 2-9 1-16-6-12-14 6-11 14-20 21-31Z" fill="#fbf7ee" stroke="#242423" stroke-width="3" stroke-linejoin="round"/>
  <path d="M84 155c52-2 121-2 184 4M76 174c52-2 124-2 194 5" stroke="#242423" stroke-width="2" stroke-linecap="round" opacity=".65"/>
  <path d="M106 160c16-2 40-2 63 .3M112 177c22-2 49-2 78 .5" stroke="#242423" stroke-width="1.8" stroke-linecap="round" opacity=".45"/>
  <path d="M96 111c46-6 120-7 176 1 8 1 10 8 4 14-6 7-11 15-7 24-48-6-128-5-184 2-9 1-16-6-12-14 6-10 15-18 23-27Z" fill="#f7f0df" stroke="#242423" stroke-width="3" stroke-linejoin="round"/>
  <path d="M98 121c48-3 113-3 172 4M88 138c52-2 123-1 181 5" stroke="#242423" stroke-width="2" stroke-linecap="round" opacity=".62"/>
  <path d="M130 125c19-2 42-2 70 .3M135 142c20-1 46-1 73 .3" stroke="#242423" stroke-width="1.8" stroke-linecap="round" opacity=".45"/>
  <path d="M114 78c45-7 105-7 158 1 9 1 11 9 4 15-6 5-10 13-7 20-45-5-116-5-165 2-9 1-16-7-11-15 5-8 13-15 21-23Z" fill="#fffaf0" stroke="#242423" stroke-width="3" stroke-linejoin="round"/>
  <path d="M115 88c52-2 103-2 157 4M106 103c52-2 105-1 162 5" stroke="#242423" stroke-width="2" stroke-linecap="round" opacity=".62"/>
  <path d="M152 91c22-2 45-2 72 .3" stroke="#242423" stroke-width="1.8" stroke-linecap="round" opacity=".45"/>
  <path d="M171 35c-13-4-28 5-30 24-2 20 11 39 27 39 8 0 12-5 17-5 4 0 9 5 17 4 16-2 27-22 23-41-5-20-21-26-35-20-6 3-10 3-19-1Z" fill="#e6e1d7" stroke="#242423" stroke-width="3.2" stroke-linejoin="round"/>
  <path d="M181 38c-4-13 1-22 11-29" stroke="#242423" stroke-width="3" stroke-linecap="round"/>
  <path d="M188 18c11-2 20 0 27 9-12 4-22 2-27-9Z" fill="#9bb77c" stroke="#242423" stroke-width="2.5" stroke-linejoin="round"/>
  <path d="M158 52c5-6 13-9 24-8M154 64c8-4 21-6 37-5M155 76c13-4 29-4 47-2M164 88c10-3 21-3 32-2" stroke="#242423" stroke-width="1.8" stroke-linecap="round" opacity=".48"/>
  <path d="M238 32c9-12 17-23 27-33M255 51c16-5 31-9 46-12M241 67c11 4 22 10 33 17" stroke="#242423" stroke-width="3" stroke-linecap="round"/>
</svg>
