<svg xmlns="http://www.w3.org/2000/svg" width="360" height="520" viewBox="0 0 360 520">
<defs><filter id="paper"><feDropShadow dx="4" dy="6" stdDeviation="3" flood-opacity=".18"/></filter></defs>
<g filter="url(#paper)" transform="rotate(-1 180 260)"><rect x="34" y="32" width="292" height="454" fill="#FAF6EE" stroke="#242423" stroke-width="3"/><path d="M48 56h260v135H48z" fill="#DDEDFC" stroke="#242423" stroke-width="2"/><path d="M72 100c35-30 72-22 92 5 18 22 52 28 105-16" fill="none" stroke="#2B7FFB" stroke-width="4"/><circle cx="90" cy="145" r="12" fill="#E55539"/><circle cx="234" cy="84" r="9" fill="#F1A108"/><text x="52" y="232" font-family="Permanent Marker, Comic Sans MS" font-size="24" fill="#242423">Project Title</text><text x="52" y="264" font-family="Inter,Arial" font-size="14" fill="#242423">Short description about the</text><text x="52" y="286" font-family="Inter,Arial" font-size="14" fill="#242423">project and what it solves.</text><g font-family="Inter,Arial" font-size="12"><rect x="52" y="312" width="55" height="24" fill="#F8F2E7" stroke="#242423"/><text x="66" y="329">Tech 1</text><rect x="114" y="312" width="55" height="24" fill="#F8F2E7" stroke="#242423"/><text x="128" y="329">Tech 2</text><rect x="176" y="312" width="55" height="24" fill="#F8F2E7" stroke="#242423"/><text x="190" y="329">Tech 3</text></g><text x="52" y="410" font-family="Segoe Print, Comic Sans MS" font-size="18" fill="#2B7FFB">CASE STUDY →</text></g><path d="M38 20c18-8 29 2 22 20" fill="none" stroke="#C2712D" stroke-width="6" stroke-linecap="round"/></svg>