<svg xmlns="http://www.w3.org/2000/svg" width="220" height="280" viewBox="0 0 220 280"><path d="M45 28h130l8 205-128 10z" fill="#F6D982" stroke="#242423" stroke-width="3"/><path d="M26 26l75-14" stroke="#D7BA73" stroke-width="15" opacity=".75"/><text x="72" y="70" font-family="Permanent Marker, Comic Sans MS" font-size="22">TODAY'S PLAN</text><g font-family="Inter,Arial" font-size="18" fill="#242423" stroke="#242423" stroke-width="2"><rect x="70" y="94" width="18" height="18" fill="none"/><path d="M74 103l6 6 13-18" fill="none"/><text x="98" y="110" stroke="none">BUILD</text><rect x="70" y="126" width="18" height="18" fill="none"/><path d="M74 135l6 6 13-18" fill="none"/><text x="98" y="142" stroke="none">TEST</text><rect x="70" y="158" width="18" height="18" fill="none"/><path d="M74 167l6 6 13-18" fill="none"/><text x="98" y="174" stroke="none">DEPLOY</text><rect x="70" y="190" width="18" height="18" fill="none"/><path d="M74 199l6 6 13-18" fill="none"/><text x="98" y="206" stroke="none">IMPACT</text></g><path d="M158 205l7 17 19 1-15 11 5 18-16-10-16 10 5-18-15-11 19-1z" fill="#E55539" stroke="#242423"/></svg>