<svg xmlns="http://www.w3.org/2000/svg" width="80" height="480" viewBox="0 0 80 480"><rect width="80" height="480" fill="#F8F2E7"/><g stroke="#242423" stroke-width="4" fill="none"><path d="M36 10c-22 0-22 30 0 30h26"/><path d="M36 70c-22 0-22 30 0 30h26"/><path d="M36 130c-22 0-22 30 0 30h26"/><path d="M36 190c-22 0-22 30 0 30h26"/><path d="M36 250c-22 0-22 30 0 30h26"/><path d="M36 310c-22 0-22 30 0 30h26"/><path d="M36 370c-22 0-22 30 0 30h26"/><path d="M36 430c-22 0-22 30 0 30h26"/></g></svg>